/* XPM */
static char *e5f414c52d544558a0e15e4336cb64d0WfAtDM5OHbSk2sfO[] = {
/* columns rows colors chars-per-pixel */
"64 64 256 2 ",
"   c black",
".  c #0000A8",
"X  c #00A800",
"o  c #00A8A8",
"O  c #A80000",
"+  c #A800A8",
"@  c #A85400",
"#  c gray66",
"$  c gray33",
"%  c #5454FC",
"&  c #54FC54",
"*  c #54FCFC",
"=  c #FC5454",
"-  c #FC54FC",
";  c #FCFC54",
":  c gray99",
">  c #ECECEC",
",  c gainsboro",
"<  c #D0D0D0",
"1  c #C0C0C0",
"2  c #B4B4B4",
"3  c gray66",
"4  c #989898",
"5  c gray55",
"6  c #7C7C7C",
"7  c gray44",
"8  c #646464",
"9  c gray33",
"0  c #484848",
"q  c gray22",
"w  c #2C2C2C",
"e  c #202020",
"r  c #FC0000",
"t  c #EC0000",
"y  c #E00000",
"u  c #D40000",
"i  c #C80000",
"p  c #BC0000",
"a  c #B00000",
"s  c #A40000",
"d  c #980000",
"f  c #880000",
"g  c #7C0000",
"h  c #700000",
"j  c #640000",
"k  c #580000",
"l  c #4C0000",
"z  c #400000",
"x  c #FCD8D8",
"c  c #FCB8B8",
"v  c #FC9C9C",
"b  c #FC7C7C",
"n  c #FC5C5C",
"m  c #FC4040",
"M  c #FC2020",
"N  c #FC0000",
"B  c #FCA85C",
"V  c #FC9840",
"C  c #FC8820",
"Z  c #FC7800",
"A  c #E46C00",
"S  c #CC6000",
"D  c #B45400",
"F  c #9C4C00",
"G  c #FCFCD8",
"H  c #FCFCB8",
"J  c #FCFC9C",
"K  c #FCFC7C",
"L  c #FCF85C",
"P  c #FCF440",
"I  c #FCF420",
"U  c #FCF400",
"Y  c #E4D800",
"T  c #CCC400",
"R  c #B4AC00",
"E  c #9C9C00",
"W  c #848400",
"Q  c #706C00",
"!  c #585400",
"~  c #404000",
"^  c #D0FC5C",
"/  c #C4FC40",
"(  c #B4FC20",
")  c #A0FC00",
"_  c #90E400",
"`  c #80CC00",
"'  c #74B400",
"]  c #609C00",
"[  c #D8FCD8",
"{  c #BCFCB8",
"}  c #9CFC9C",
"|  c #80FC7C",
" . c #60FC5C",
".. c #40FC40",
"X. c #20FC20",
"o. c #00FC00",
"O. c #00FC00",
"+. c #00EC00",
"@. c #00E000",
"#. c #00D400",
"$. c #04C800",
"%. c #04BC00",
"&. c #04B000",
"*. c #04A400",
"=. c #049800",
"-. c #048800",
";. c #047C00",
":. c #047000",
">. c #046400",
",. c #045800",
"<. c #044C00",
"1. c #044000",
"2. c #D8FCFC",
"3. c #B8FCFC",
"4. c #9CFCFC",
"5. c #7CFCF8",
"6. c #5CFCFC",
"7. c #40FCFC",
"8. c #20FCFC",
"9. c #00FCFC",
"0. c #00E4E4",
"q. c #00CCCC",
"w. c #00B4B4",
"e. c #009C9C",
"r. c #008484",
"t. c #007070",
"y. c #005858",
"u. c #004040",
"i. c #5CBCFC",
"p. c #40B0FC",
"a. c #20A8FC",
"s. c #009CFC",
"d. c #008CE4",
"f. c #007CCC",
"g. c #006CB4",
"h. c #005C9C",
"j. c #D8D8FC",
"k. c #B8BCFC",
"l. c #9C9CFC",
"z. c #7C80FC",
"x. c #5C60FC",
"c. c #4040FC",
"v. c #2024FC",
"b. c #0004FC",
"n. c #0000FC",
"m. c #0000EC",
"M. c #0000E0",
"N. c #0000D4",
"B. c #0000C8",
"V. c #0000BC",
"C. c #0000B0",
"Z. c #0000A4",
"A. c #000098",
"S. c #000088",
"D. c #00007C",
"F. c #000070",
"G. c #000064",
"H. c #000058",
"J. c #00004C",
"K. c #000040",
"L. c #282828",
"P. c #FCE034",
"I. c #FCD424",
"U. c #FCCC18",
"Y. c #FCC008",
"T. c #FCB400",
"R. c #B420FC",
"E. c #A800FC",
"W. c #9800E4",
"Q. c #8000CC",
"!. c #7400B4",
"~. c #60009C",
"^. c #500084",
"/. c #440070",
"(. c #340058",
"). c #280040",
"_. c #FCD8FC",
"`. c #FCB8FC",
"'. c #FC9CFC",
"]. c #FC7CFC",
"[. c #FC5CFC",
"{. c #FC40FC",
"}. c #FC20FC",
"|. c #FC00FC",
" X c #E000E4",
".X c #C800CC",
"XX c #B400B4",
"oX c #9C009C",
"OX c #840084",
"+X c #6C0070",
"@X c #580058",
"#X c #400040",
"$X c #FCE8DC",
"%X c #FCE0D0",
"&X c #FCD8C4",
"*X c #FCD4BC",
"=X c #FCCCB0",
"-X c #FCC4A4",
";X c #FCBC9C",
":X c #FCB890",
">X c #FCB080",
",X c #FCA470",
"<X c #FC9C60",
"1X c #F0945C",
"2X c #E88C58",
"3X c #DC8854",
"4X c #D08050",
"5X c #C87C4C",
"6X c #BC7848",
"7X c #B47044",
"8X c #A86840",
"9X c #A0643C",
"0X c #9C6038",
"qX c #905C34",
"wX c #885830",
"eX c #80502C",
"rX c #744C28",
"tX c #6C4824",
"yX c #5C4020",
"uX c #543C1C",
"iX c #483818",
"pX c #403018",
"aX c #382C14",
"sX c #28200C",
"dX c #600064",
"fX c #006464",
"gX c #006060",
"hX c #00001C",
"jX c #00002C",
"kX c #302410",
"lX c #480048",
"zX c #500050",
"xX c #000034",
"cX c gray11",
"vX c #4C4C4C",
"bX c gray36",
"nX c gray25",
"mX c gray19",
"MX c #343434",
"NX c #D8F4F4",
"BX c #B8E8E8",
"VX c #9CDCDC",
"CX c #74C8C8",
"ZX c #48C0C0",
"AX c #20B4B4",
"SX c #20B0B0",
"DX c #00A4A4",
"FX c #009898",
"GX c #008C8C",
"HX c #008484",
"JX c #007C7C",
"KX c #007878",
"LX c #007474",
"PX c #007070",
"IX c #006C6C",
"UX c #980088",
/* pixels */
"MXw w w L.L.cXL.cXcXcXcXL.L.L.L.L.MXnXL.cXcXcXcXL.L.L.cXcXcXcXL.L.w w L.w L.w w w w MXw L.L.cXL.w L.L.L.L.L.w nXw cXcXL.w w w w ",
"L.L.L.L.L.L.L.cXcXcXcXcXcXcXL.L.cXMX0 L.cXcXcXcXcXcXcXcXcXcXcXcXcXL.L.cXL.cXL.L.L.cXL.cXcXcXcXcXL.L.L.L.L.L.L.MXL.cXcXcXL.L.L.L.",
"L.L.cXcXL.L.L.L.L.L.cXcXcXcXcXcXcXL.MXw L.L.cXcXL.cXcXcXcXcXcXcXcXL.cXcXcXcXcXL.L.cXcXcXcXcXcXcXcXcXcXcXcXcXL.MXw cXL.L.L.L.L.L.",
"cXcXcXL.L.L.L.L.cXcXcXcXL.L.L.w L.L.MXMXL.L.cXcXcXcXcXcXcXcXcXcXcXcXcXcXcXcXcXcXcXcXcXcXcXcXcXcXcXcXcXcXcXL.w w MXcXcXcXL.w w w ",
"cXcXcXcXcXcXcXcXcXcXcXcXcXcXcXcXcXL.w w w cXcXcXcXcXcXcXcXcXcX  cXcX    cXcXcXcXcX    cXcXcX        cXcXcXcXcX  cXcX      cXcXcX",
"nXnXnXMXMXMXnXnXMXL.cXcXcXcXcXL.w MXnXnXw nXMXw nXMXw cXL.MXw w MXnXMXMX0 nXnXw w cXL.w w w w L.L.cXcXL.MXw w L.L.L.w L.w MXMXnX",
"L.MXw L.L.w w L.w MXw w MXw L.w L.cXw e e e L.L.MXL.e cXcXcXL.cXL.L.cXcXL.cXL.w $ nXw cXcXcXL.w w w L.L.L.L.L.cXcXL.L.cXL.L.cXcX",
"cXcXcXcXcXcXcXcXL.nXw w w w cXcXcXcXcXcXcXcXcXcXcXcXcXcX  cXcXcXcXL.L.w w L.L.w 0 0 w cXcXcXcXw L.L.w w L.cXL.L.cXcXcXcXcXcXcXcX",
"cXcXcXcXcXL.cXcXw MXMXw L.L.L.L.L.cXcXcXL.L.cXcXe e cXcXcXcXcXL.L.L.L.w L.L.w w MXnXMXL.cXcXcXcXcXL.w w w L.cXL.L.cXL.L.L.cXcXcX",
"cXcXcXcXcXcXcXcXL.MXMXw w L.cXcXcXcXcXcXcXcXcX  cXcX      cXcXcXcXcXL.L.cXcXcXL.L.L.L.L.L.w cXL.L.cXL.w w L.L.L.cXcXcXcXcXcXcXcX",
"nXnXMXw MXnXMXw L.L.w MXMXMXw L.L.w MXMXw w w w w w L.L.L.L.L.L.w MXnXMXw w w MXw L.L.MXMXMXL.w MXMXMXw w MXMXMXnXMXnXnX0 MXw nX",
"nXnXnXw L.L.L.cXcXL.L.L.L.L.cXe e e e e e L.L.L.L.L.w MXMXMXMXL.L.MXnXMXL.cXcXL.cXcXcXcXL.cXcXcXcXL.cXcXcXcXcXcXcXcXw MX0 MXw MX",
"w w L.cXcXcXcXcXL.L.cXcXcXcXcXcXcXcXcXcXcXcXL.cXe e L.L.cXcXcXcXL.w MXL.cXcX  cXcXcXcXcXcXcXcXcXL.L.L.cXcXcXL.L.L.L.L.w w MXL.L.",
"e e cXcXcXL.L.L.cXcXcXcXcXcXL.L.L.L.L.cXcXcXL.cXL.L.L.L.cXcXcXcXcXcXcXL.cX      cXcXcXcXcXcXcXcXcXe cXcXcXe e e e e e w MXMXL.cX",
"cXe cXcXcXcXcX  cXcX      cX        cXcX        cXcXcXcX        cX  cXcXcXcXcX  cXcXcXcXcXcXcXcXcXcXcXcXcXcXcXcXcXcXcXL.MXw L.e ",
"$ 0 0 nXnXMXMXnXnXnXMXMXMXw w w w MXMXMXw w e cXcXcXcXcXL.cXcXcXL.cXcXw w MXMXMXnXnXMX0 nXnX0 $ 0 nXnXnXw L.w w MXnXnXnXnXMX0 nX",
"w L.L.L.cXcXL.L.w L.cXcXL.w w L.w e e L.w MXw cXcXcXcXcXcXcXcXL.cXcXcXcXcXcXcXcXcXcXcXcXcXcXL.L.cXL.L.MXMXw MXL.cXL.L.L.w w w w ",
"cXcXcXcXcXcXcXcXcXcXcXcXcXL.cXcXcXcXcXe e L.w cXcXcXcXcXcXcXL.L.cXcXcXcXcXcXcXcXcXcXcXcXcXcXcXcXcXcXL.MXMXL.L.L.L.e e e e e e e ",
"cXcXcXcXcXcXcXcXcXcXcXcXcXcXcXw L.cXcXcXcXe cXcXcXcXcXcXcXcXcXL.  cXcXcXcXcXL.cXcXcXcXcXcXcXcXcXcXcXcXL.L.cXL.L.cXcXcXcXcXcXcXcX",
"cXcX                cXcXcXcXcXcXcXcXcX              cX        cXcX  cXcXcXcXcXcXcXcXcXcXcXcXcXcXcXcXcXL.MXw L.cXL.L.MXMXMXw L.cX",
"MXL.cXcXcXcXcXcXw MXMXMXMXMXMXnXMXMXMXMXMXw cXcXL.L.MXw w w L.L.L.w MXnXnXnXMXMXnXnXMXL.L.MXMXMXw w MXMXMXnXnXMXnXnXnX$ nX$ 0 nX",
"L.L.w MXcX  cXcXcXcXcXcXcXcXcXcXcXcXcXcXcX    cXcXL.MXw cXcXcXcXcXcXcXe w L.w MXMXnX0 MXL.L.L.cXcXcXcXL.L.cXcXcXcXcXcXcXL.L.L.L.",
"cXcXMXMXL.cXcXcXcXcXcXcXcXcXL.cXcXcXcXcXcXcXcXcXcXL.w e cXcX    cXcXcXL.w L.L.L.w MXnXe cXcXcXcXcXcXcXcXcXcXcXcXcXcXcXcXcXcXcXcX",
"cXcXw w L.cXcXcXcXcXcXcXcXcXcXcXL.cXcXcXcXcXcX  cXw L.cXcXcXcXcXcXe e e L.L.cXcXL.MXMXL.cXcXL.cXcXcXcXcXcXcXcXcXcXcXcXcXcXcXcXcX",
"cXcXcXL.L.cXcXcX                cX                cXcXcXcX    cXcXcXcXcXcXcXcXcXcXL.L.cX  cXcXcXcXcXcXcXcXcXcXcXcXcXcXcXcXcXcXcX",
"cXL.L.w w L.cXcXcXcXcXcXcXcXL.w w MXMXw MXL.L.L.MX0 MXMXw nXMXMX0 $ bXnX0 nXnXnXnXMXMXMXMXMXMXMXMXw L.w L.L.cXcXL.L.cXcXcXcXcXcX",
"cXcXL.w w L.cXcXcX  cX  cXcXcXcXcXL.w cXcXcXcXcXcXcXcXcXL.cXL.L.L.L.w w MXw L.w w L.L.L.L.L.cXcXcXw w MXMXL.w w L.L.cXcXcXcXcXcX",
"cXcXcXcXcXcXcXcXcXcXcXcX      cXcXcXcXcXcXcXcX  cXcXcXcXcXL.L.L.L.L.w L.L.cXcXL.L.cXcXL.L.L.cXcXcXcXMXnXw L.L.w L.cX    cXcXcXcX",
"cXcXcXcXcXcXcXcXcX      cX    cXcXL.cXcXcXcXcXcXcXcXL.cXcXcXL.L.cXL.L.cXcXcXcXcXcXcXcXL.w L.cXcXcXL.MXMXw L.L.w L.cXcX  cXcXcXcX",
"cXcXcXcX    cX                    cXcX            cXcX  cXcX  cXcX        cXL.cXcXcXcXcXcXL.L.L.cXcXcXL.L.cXcXL.L.cXcX  cXcXcXcX",
"MXMXw MXw cXL.w cXcXcXL.cXe w MXMXw MXMXMXMXw MXMXw L.cXcXL.w MXL.cXL.cXcXcXe cXcXcXcX  cXMXMXw L.L.cXL.w w cXcXw w MXMXw w w MX",
"L.cXcXMXMXw L.L.cXcXcXL.L.e L.w w L.L.L.L.L.cXcXw MXw L.w L.L.L.L.L.w MXMXMXMXL.e e cXcXcXL.L.L.cXcXcX    cXcXcXcXcXcXcXL.cXcXcX",
"cXcXcXw nXMXw L.cXL.L.w w w w w L.L.L.L.cXcXcXcXcXcXL.L.L.cXcXL.L.w L.e e e w MXw e cX  cXL.L.L.cXcXcXcXcXcXcXcXcXcXcXcXcXcXcXcX",
"cXcXcXcXMXw L.L.cXcXcXcXcXcXcXcXcXcXcXcXcXcXcXcXcXw cX    cXcXcXe w L.L.w w w nXL.cXcXcXcXL.cXcXcXcXcXcXcX  cXcXcXcXcXcXcXcXcXL.",
"cXcXcXcXL.L.cXcXcX                cXcXcXcXcXcXcXcXcXL.cX        cXcXe e e L.L.L.L.e cXcXcXcXcXcX  cX  cXcX  cXcXcXcXcXL.L.cXcXcX",
"nX0 0 0 0 0 nXMXw MXMXL.L.cXe w nXnXnXMXMXMXMXnXnXnX0 nX$ nXw MXw MXMXMXMXnXMXMXw nXMXMXMXMXMXL.L.L.cXcXcXcXL.L.MXMXMXnXnXMXMXnX",
"MXw L.w w L.w MXnXw cXcXcXcXe L.w w L.L.w L.MXw w MXMXMXnXMXcXcXw w MXMXL.cXcXL.w MXMXMXMXMXMXL.cX    cXcXcXcXL.L.w w L.w MXMXMX",
"cXcXcXcXL.cXL.w MXnXe cXcXcXe e w L.L.L.L.L.L.L.L.cXL.w MXw cXcXL.cXcXcXcXcXcXcXw w w w L.0 nXcXcX    cXcXcXcXcXw w L.L.w w L.w ",
"cXcXL.L.L.L.L.L.w w L.cXcXcXcXcXe L.L.L.w L.L.w L.L.L.L.w L.cXcXcXL.L.L.L.L.cXcXL.w L.L.w 0 MXcX    cXcXcXcXcXcXw w L.L.L.L.cXcX",
"cXcXcXcXL.cXcXcXcXcXcXcXcXcXcXcXcXcXcXcXcXe e cXL.cXL.cXcX  cXcXL.w L.L.cXcXcXcXcXL.cXcXcXw w cXcX        cXcXcXcXcXcXcXcXL.cXcX",
"cXcXcXcXL.L.cXL.L.cXcXL.L.cXcXcXcXcXcXcXL.cXcXw MXMXL.L.L.L.L.L.cXcXcXcXcXcXL.L.cXw w L.cXcXcXw w cXcXcXcXcXcXcXcXcXcXcXcXcXcXcX",
"L.cXcXL.L.L.w w w w L.w w w L.cXcXcXcXcXcXL.L.w w L.L.w L.cXcXL.cXcXcX  cXcXw L.L.MXMXw L.L.cXL.L.L.L.L.L.L.L.w w nXMXcXcXcXL.cX",
"cXcXcXcXcXcXcXcXcXcXcXcXcXcXcXcXcXcXcXcXL.cXcXcXcXcXL.cXcXcXL.cXcXcX    cXL.L.cXcXcXcXcXcXcXcXL.w L.cXcXcXcXL.L.L.w MXL.cXcXcXcX",
"cXcXcXcX        cXcXcXcXcXcXcXcXcXw w L.cXL.w L.L.w w L.cXcXL.cXL.cXcX  cXcXcXcXL.L.cXcXcXcXL.w w w L.cXL.L.cXL.w MXnXL.cXcXcXcX",
"cXcXcX      cXcXcXcXcX      cXcXL.L.w L.L.cXcXcXcXcXL.cXL.L.w cXcXcXcXcXcX  cXcXcXcXcXcXcXcXcXcXcXcXcXL.L.cXcXcXcXMXMXcXcXcXcXcX",
"L.cXcX                cXcXcXcXcXL.MXMXw cXcXcXcXcXcX      cXcXcXL.cXcXcXcXcXcXcXL.w L.cXcXcXL.L.L.cXcXcXcXcXcXw MXMXMXMXw L.L.w ",
"L.w w MXMXMXw L.L.L.w MXw L.L.L.w MXnXnXnX$ 8 8 8 bX$ 0 nXnXnX0 MXnXnXnXMXMXMXMXMXMXw nXMXL.cXcXcXcXcXcXcXcXcXL.w w L.L.L.L.L.L.",
"cXcXcXw MXw w cXL.L.L.L.L.L.w w w w w MXL.L.L.L.cXe e e e e e L.L.w L.L.cXL.L.L.L.w w MXnXL.cXcXcXcXcXcXcXcXcXcXcXcXcXcXcXcXcXcX",
"cXcXcXMXMXcXcXcXL.L.L.cXL.w MXcXL.L.L.L.cXcXcXcXcXcXcXcXcXcXcXcXcXe e cXe e e e e cXw MXMXcX    cXcXcXcXcXcXcXcXcXcXcXcXcXcXcXcX",
"cXcXcXw MXL.cXcXcXw L.cXcXL.w cXcXcXL.w cXcXL.L.cXcXcXcXcXcXcXcXcXcXcXcXcXcXe e cXcXL.w w cXcX  cXcXcXcXcXcXcXcXcXcXcXcXcXcXcXcX",
"cX    cXcXcXcXcXcXcXcXcXcXcXcX    cXcX        cX                                cXcXcXcXcXcX                                    ",
"w MXMXw L.L.w w w L.w L.L.L.L.L.L.cXcXcXL.cXcXcXw cX  cXcXcXcXcXMXL.cXcXe L.L.L.L.w MXw L.w MXw L.w L.w w L.cXcXcXcXcXw cX  cXw ",
"L.L.L.L.L.cXcXcXcXL.L.L.L.L.L.nXnXMXcXcXcXL.cXcXcX      cX  cXL.MXMXcX    cXcXcXcXcXcXcXcXL.cXcXcXcXcXcXcXcXcXL.L.cXcXcXcXcXw MX",
"cXcXcXcXcXcXcXcXcXcXcXcXcXcXcXMX0 MXcXcXcXL.cXL.L.cXcXcXcXcXcXcXMXMXcXcXcXcXcXcXcXcXcXcXcXcXcXcXcXcXcXcXcXcXcXcXL.cX  cXcXcXL.cX",
"cXL.cXcXcXcXcXcXcXcXcXcXcXcXcXcXw L.cXcXcXcX  cXcXcXcXcXcXcXcXcXMXnXw cXcXcXcXcXcXcXcXcXcXcXcXcXcXcXcXcXcXcXcXL.cXcX  cXcXL.L.cX",
"cXcXcX              cX  cX  cXcXL.cXcXcXcXcX  cXcXcXcXcXcXL.cXcXcXe cXcX  cXcXcXcX                      cXcXcXcXcXcX  cX  cXL.cX",
"L.w cXcXcXcX  cXcXcXcXcXcXcXcXcXL.L.L.cXcXcXcXcXcXcXcX          cXL.L.L.cXe L.MXMXL.L.L.L.L.w w L.w nXL.w cXcXcXcXcXL.cXcXcXcXL.",
"w w L.L.L.cXcXcXcXcXcXcXL.L.cXcXcXL.cXcXcXL.cXcX    cXcX      cXcXcXcXcXcXcXcXcXcXcXcXL.cXcXcXcXL.L.e w L.w L.cXcXL.L.L.w w w w ",
"w MXMXL.L.L.L.L.cXcXcXL.L.L.L.cXcXL.w L.cXcXcXcXcXcXcXcXcX    cXcXcXcXcXcXcXcXcXcXcXL.cXL.cXcXcXcXcXcXcXcXL.L.L.w MXw w L.L.w L.",
"L.MXMXMXMXMXnX0 nXMXMXL.L.L.MXMXMXnXMXMXw MXL.L.w MX0 nXMXw MXMXnXMXnXnXMXMXMXMXMXMXw w w e cXcXcXL.w L.L.w MXMXw MXMXnXnXnXMXMX",
"L.L.L.L.w w w MXMXnXMXcXcXcXcXL.L.L.cXcXcXcXcXcXcXcXcXcXcX  cXcXcXcXe L.L.w w w MXMXnX0 MXw L.cXcXw w w L.w w w w L.L.L.L.w w MX",
"cXcXcXL.L.L.L.L.w MXMXL.cXcXL.w w L.cXcXcXcXcXcXcXcXcXcXcXcX  cXcXcXcXcXcXcXcXe e L.MXMXMXw w cXcXw w L.L.w L.cXcXcXcXcXcXL.L.cX",
"cXcXL.L.L.w w w L.w MXcXcXcXL.L.w L.L.cXcXcXcXcXcXcXcXcXcXcXcXcXcXcXcXcXcXcXcXcXe L.MXMXMXw w e cXcXcXL.cXcXcXcXcX  cXcXcXw w w ",
"w L.L.cXcXL.cXcXcXL.L.cXcXcX  cXcXcXcXcXcXcXcX      cXcXcXcXcXcXcXcXcXcXcXcXcXcXcXcXw MXMXMXMXMXMXL.L.cXw w w L.cXcXL.L.cXL.L.w "
};
