/* XPM */
static char * wall_N_xpm[] = {
"128 128 55 1",
" 	c #22641E",
".	c #1B5318",
"+	c #000000",
"@	c #041A04",
"#	c #21621D",
"$	c #072406",
"%	c #1E5A1A",
"&	c #164713",
"*	c #031302",
"=	c #20601C",
"-	c #144211",
";	c #010A01",
">	c #1F5E1C",
",	c #123D0F",
"'	c #000300",
")	c #1E5B1B",
"!	c #0F370D",
"~	c #1D5819",
"{	c #0C300A",
"]	c #1C5518",
"^	c #0A2A08",
"/	c #1A5117",
"(	c #072306",
"_	c #22631E",
":	c #082707",
"<	c #020D01",
"[	c #184C15",
"}	c #0D330B",
"|	c #154412",
"1	c #051B04",
"2	c #21611D",
"3	c #031503",
"4	c #164813",
"5	c #174914",
"6	c #031402",
"7	c #20601D",
"8	c #051D04",
"9	c #144311",
"0	c #184D15",
"a	c #010B01",
"b	c #205E1C",
"c	c #123E0F",
"d	c #1A5217",
"e	c #010501",
"f	c #1F5C1B",
"g	c #0A2C08",
"h	c #10380D",
"i	c #1C5618",
"j	c #1D591A",
"k	c #0D320B",
"l	c #10390D",
"m	c #0A2B08",
"n	c #123F10",
"o	c #205F1C",
"p	c #051E04",
"                                                                                                                                ",
"                                                                                                                                ",
"                                                                                                                                ",
"                                                                                                                                ",
"                                                                                                                                ",
"                                                                                                                                ",
"                                                                                                                                ",
"                                                                                                                                ",
"                                                                                                                                ",
"                                                                                                                                ",
"                                                                                                                                ",
"                                                                                                                                ",
"                                                                                                                                ",
"                                                                                                                                ",
"                                                                                                                                ",
"                                                                                                                                ",
"                                                                                                                                ",
"                                                                                                                                ",
"                                                                                                                                ",
"                                                                                                                                ",
"                                                                                                                                ",
"                                                                                                                                ",
"                                                                                                                                ",
"                                                                                                                                ",
"                                                                                                                                ",
"                                                                                                                                ",
"                                                                                                                                ",
"                                                                                                                                ",
"                                                                                                                                ",
"                                                                                                                                ",
"                                                                                                                                ",
"                                                                                                                                ",
"                                                                                                                                ",
"                                                                                                                                ",
"                                                                                                                                ",
"                                                                                                                                ",
"                                                                                                                                ",
"                                                                                                                                ",
"                                                                                                                                ",
"                                                                                                                                ",
"                                                                                                                                ",
"                                                                                                                                ",
"                                                                                                                                ",
"                                                                                                                                ",
"                                                                                                                                ",
"                                           .++++++++++++@#               $++++++++++%                                           ",
"                                           .+++++++++++++&               $++++++++++%                                           ",
"                                           .+++++++++++++*=              $++++++++++%                                           ",
"                                           .++++++++++++++-              $++++++++++%                                           ",
"                                           .++++++++++++++;>             $++++++++++%                                           ",
"                                           .+++++++++++++++,             $++++++++++%                                           ",
"                                           .+++++++++++++++')            $++++++++++%                                           ",
"                                           .++++++++++++++++!            $++++++++++%                                           ",
"                                           .+++++++++++++++++~           $++++++++++%                                           ",
"                                           .+++++++++++++++++{           $++++++++++%                                           ",
"                                           .++++++++++++++++++]          $++++++++++%                                           ",
"                                           .++++++++++++++++++^          $++++++++++%                                           ",
"                                           .+++++++++++++++++++/         $++++++++++%                                           ",
"                                           .+++++++++++++++++++(_        $++++++++++%                                           ",
"                                           .++++++++++:<++++++++[        $++++++++++%                                           ",
"                                           .++++++++++}|++++++++1#       $++++++++++%                                           ",
"                                           .++++++++++}23++++++++4       $++++++++++%                                           ",
"                                           .++++++++++} 5++++++++67      $++++++++++%                                           ",
"                                           .++++++++++} #8++++++++9      $++++++++++%                                           ",
"                                           .++++++++++}  0++++++++ab     $++++++++++%                                           ",
"                                           .++++++++++}  _$++++++++c     $++++++++++%                                           ",
"                                           .++++++++++}   d++++++++ef    $++++++++++%                                           ",
"                                           .++++++++++}    g++++++++h    $++++++++++%                                           ",
"                                           .++++++++++}    i+++++++++j   $++++++++++%                                           ",
"                                           .++++++++++}     k++++++++k   $++++++++++%                                           ",
"                                           .++++++++++}     j+++++++++]  $++++++++++%                                           ",
"                                           .++++++++++}      l++++++++m  $++++++++++%                                           ",
"                                           .++++++++++}      fe++++++++/ $++++++++++%                                           ",
"                                           .++++++++++}       n++++++++$_$++++++++++%                                           ",
"                                           .++++++++++}       o<++++++++0$++++++++++%                                           ",
"                                           .++++++++++}        |++++++++8p++++++++++%                                           ",
"                                           .++++++++++}        23+++++++++++++++++++%                                           ",
"                                           .++++++++++}         5+++++++++++++++++++%                                           ",
"                                           .++++++++++}         #8++++++++++++++++++%                                           ",
"                                           .++++++++++}          0++++++++++++++++++%                                           ",
"                                           .++++++++++}          _$+++++++++++++++++%                                           ",
"                                           .++++++++++}           d+++++++++++++++++%                                           ",
"                                           .++++++++++}            m++++++++++++++++%                                           ",
"                                           .++++++++++}            i++++++++++++++++%                                           ",
"                                           .++++++++++}             k+++++++++++++++%                                           ",
"                                           .++++++++++}             j+++++++++++++++%                                           ",
"                                           .++++++++++}              l++++++++++++++%                                           ",
"                                           .++++++++++}              fe+++++++++++++%                                           ",
"                                           .++++++++++}               n+++++++++++++%                                           ",
"                                           .++++++++++}               o<++++++++++++%                                           ",
"                                                                                                                                ",
"                                                                                                                                ",
"                                                                                                                                ",
"                                                                                                                                ",
"                                                                                                                                ",
"                                                                                                                                ",
"                                                                                                                                ",
"                                                                                                                                ",
"                                                                                                                                ",
"                                                                                                                                ",
"                                                                                                                                ",
"                                                                                                                                ",
"                                                                                                                                ",
"                                                                                                                                ",
"                                                                                                                                ",
"                                                                                                                                ",
"                                                                                                                                ",
"                                                                                                                                ",
"                                                                                                                                ",
"                                                                                                                                ",
"                                                                                                                                ",
"                                                                                                                                ",
"                                                                                                                                ",
"                                                                                                                                ",
"                                                                                                                                ",
"                                                                                                                                ",
"                                                                                                                                ",
"                                                                                                                                ",
"                                                                                                                                ",
"                                                                                                                                ",
"                                                                                                                                ",
"                                                                                                                                ",
"                                                                                                                                ",
"                                                                                                                                ",
"                                                                                                                                ",
"                                                                                                                                ",
"                                                                                                                                ",
"                                                                                                                                "};
