/* XPM */
static char * wall_E_xpm[] = {
"128 128 7 1",
" 	c #22641E",
".	c #1B5318",
"+	c #000000",
"@	c #1F5D1B",
"#	c #1A5217",
"$	c #010B01",
"%	c #0A2A08",
"                                                                                                                                ",
"                                                                                                                                ",
"                                                                                                                                ",
"                                                                                                                                ",
"                                                                                                                                ",
"                                                                                                                                ",
"                                                                                                                                ",
"                                                                                                                                ",
"                                                                                                                                ",
"                                                                                                                                ",
"                                                                                                                                ",
"                                                                                                                                ",
"                                                                                                                                ",
"                                                                                                                                ",
"                                                                                                                                ",
"                                                                                                                                ",
"                                                                                                                                ",
"                                                                                                                                ",
"                                                                                                                                ",
"                                                                                                                                ",
"                                                                                                                                ",
"                                                                                                                                ",
"                                                                                                                                ",
"                                                                                                                                ",
"                                                                                                                                ",
"                                                                                                                                ",
"                                                                                                                                ",
"                                                                                                                                ",
"                                                                                                                                ",
"                                                                                                                                ",
"                                                                                                                                ",
"                                                                                                                                ",
"                                                                                                                                ",
"                                                                                                                                ",
"                                                                                                                                ",
"                                                                                                                                ",
"                                                                                                                                ",
"                                                                                                                                ",
"                                                                                                                                ",
"                                                                                                                                ",
"                                                                                                                                ",
"                                                                                                                                ",
"                                                                                                                                ",
"                                                                                                                                ",
"                                                                                                                                ",
"                                                .+++++++++++++++++++++++++++++++@                                               ",
"                                                .+++++++++++++++++++++++++++++++@                                               ",
"                                                .+++++++++++++++++++++++++++++++@                                               ",
"                                                .+++++++++++++++++++++++++++++++@                                               ",
"                                                .+++++++++++++++++++++++++++++++@                                               ",
"                                                .+++++++++++++++++++++++++++++++@                                               ",
"                                                .+++++++++++++++++++++++++++++++@                                               ",
"                                                .+++++++++++++++++++++++++++++++@                                               ",
"                                                .+++++++++++++++++++++++++++++++@                                               ",
"                                                .+++++++++++#                                                                   ",
"                                                .+++++++++++#                                                                   ",
"                                                .+++++++++++#                                                                   ",
"                                                .+++++++++++#                                                                   ",
"                                                .+++++++++++#                                                                   ",
"                                                .+++++++++++#                                                                   ",
"                                                .+++++++++++#                                                                   ",
"                                                .+++++++++++#                                                                   ",
"                                                .+++++++++++++++++++++++++++++$                                                 ",
"                                                .+++++++++++++++++++++++++++++$                                                 ",
"                                                .+++++++++++++++++++++++++++++$                                                 ",
"                                                .+++++++++++++++++++++++++++++$                                                 ",
"                                                .+++++++++++++++++++++++++++++$                                                 ",
"                                                .+++++++++++++++++++++++++++++$                                                 ",
"                                                .+++++++++++++++++++++++++++++$                                                 ",
"                                                .+++++++++++++++++++++++++++++$                                                 ",
"                                                .+++++++++++++++++++++++++++++$                                                 ",
"                                                .+++++++++++#                                                                   ",
"                                                .+++++++++++#                                                                   ",
"                                                .+++++++++++#                                                                   ",
"                                                .+++++++++++#                                                                   ",
"                                                .+++++++++++#                                                                   ",
"                                                .+++++++++++#                                                                   ",
"                                                .+++++++++++#                                                                   ",
"                                                .+++++++++++#                                                                   ",
"                                                .+++++++++++#                                                                   ",
"                                                .+++++++++++#                                                                   ",
"                                                .+++++++++++++++++++++++++++++++%                                               ",
"                                                .+++++++++++++++++++++++++++++++%                                               ",
"                                                .+++++++++++++++++++++++++++++++%                                               ",
"                                                .+++++++++++++++++++++++++++++++%                                               ",
"                                                .+++++++++++++++++++++++++++++++%                                               ",
"                                                .+++++++++++++++++++++++++++++++%                                               ",
"                                                .+++++++++++++++++++++++++++++++%                                               ",
"                                                .+++++++++++++++++++++++++++++++%                                               ",
"                                                .+++++++++++++++++++++++++++++++%                                               ",
"                                                                                                                                ",
"                                                                                                                                ",
"                                                                                                                                ",
"                                                                                                                                ",
"                                                                                                                                ",
"                                                                                                                                ",
"                                                                                                                                ",
"                                                                                                                                ",
"                                                                                                                                ",
"                                                                                                                                ",
"                                                                                                                                ",
"                                                                                                                                ",
"                                                                                                                                ",
"                                                                                                                                ",
"                                                                                                                                ",
"                                                                                                                                ",
"                                                                                                                                ",
"                                                                                                                                ",
"                                                                                                                                ",
"                                                                                                                                ",
"                                                                                                                                ",
"                                                                                                                                ",
"                                                                                                                                ",
"                                                                                                                                ",
"                                                                                                                                ",
"                                                                                                                                ",
"                                                                                                                                ",
"                                                                                                                                ",
"                                                                                                                                ",
"                                                                                                                                ",
"                                                                                                                                ",
"                                                                                                                                ",
"                                                                                                                                ",
"                                                                                                                                ",
"                                                                                                                                ",
"                                                                                                                                ",
"                                                                                                                                ",
"                                                                                                                                "};
